<?xml version="1.0" standalone="no"?>
<!DOCTYPE svg PUBLIC "-//W3C//DTD SVG 20010904//EN"
 "http://www.w3.org/TR/2001/REC-SVG-20010904/DTD/svg10.dtd">
<svg version="1.0" xmlns="http://www.w3.org/2000/svg"
 width="240.000000pt" height="240.000000pt" viewBox="0 0 240.000000 240.000000"
 preserveAspectRatio="xMidYMid meet">
<metadata>
Created by potrace 1.11, written by Peter Selinger 2001-2013
</metadata>
<g transform="translate(0.000000,240.000000) scale(0.100000,-0.100000)"
fill="#000000" stroke="none">
<path d="M548 2172 c-10 -2 -18 -7 -18 -10 0 -4 -29 -47 -65 -97 -35 -49 -70
-98 -77 -108 -7 -10 -41 -58 -75 -105 -34 -48 -84 -118 -110 -155 -26 -38 -57
-80 -69 -95 -11 -15 -44 -62 -73 -104 l-53 -77 52 -48 53 -48 129 0 c71 0 132
2 136 5 4 3 31 38 61 78 l53 72 199 0 c109 0 199 -4 199 -9 0 -5 29 -39 65
-77 l66 -68 134 -1 134 -1 -17 28 c-70 115 -513 735 -552 773 -45 44 -53 48
-102 49 -29 1 -61 0 -70 -2z m351 -366 c133 -189 241 -348 241 -353 0 -11
-200 -9 -208 3 -4 5 -26 37 -49 71 -24 34 -47 65 -53 68 -6 4 -110 6 -233 6
-220 0 -222 0 -237 -23 -8 -12 -33 -47 -56 -78 l-40 -55 -95 2 c-52 0 -98 1
-102 2 -5 1 11 29 36 64 24 34 58 82 76 107 17 25 59 84 94 133 34 48 112 157
172 242 l110 154 52 1 52 0 240 -344z"/>
<path d="M567 2076 c-3 -7 -86 -125 -184 -262 -98 -137 -189 -264 -202 -282
l-23 -33 42 3 c41 3 45 7 95 78 l52 75 256 1 255 1 57 -78 c52 -73 59 -79 92
-79 l35 0 -19 29 c-10 16 -101 149 -203 295 -175 251 -187 265 -216 266 -18 0
-34 -6 -37 -14z m152 -213 l100 -143 -209 0 c-116 0 -210 2 -210 5 0 12 205
285 211 283 4 -2 53 -67 108 -145z"/>
<path d="M551 1846 l-51 -74 105 1 c69 1 102 4 98 11 -12 21 -95 136 -98 136
-1 0 -25 -33 -54 -74z"/>
<path d="M1064 2165 c-3 -6 43 -125 101 -265 59 -140 126 -304 151 -365 38
-92 54 -118 97 -160 l52 -50 72 0 c40 0 76 5 81 10 5 6 35 72 67 148 l59 138
39 -93 c30 -72 51 -106 93 -148 l54 -56 76 1 77 0 23 50 c29 64 284 683 284
691 0 3 -20 29 -45 57 l-44 52 -122 -1 -122 0 -23 -55 c-13 -30 -40 -96 -62
-147 l-39 -93 -38 93 c-30 72 -50 105 -91 147 l-53 55 -77 0 c-59 1 -78 -2
-82 -14 -3 -8 -17 -42 -32 -75 -14 -33 -39 -90 -55 -127 -15 -38 -31 -68 -34
-68 -3 0 -21 39 -40 88 -26 66 -47 100 -86 141 l-52 54 -113 1 c-71 1 -114 -2
-116 -9z m276 -167 c35 -84 72 -173 82 -198 l20 -45 15 29 c8 16 32 70 53 120
21 50 49 116 63 146 13 30 28 65 32 78 6 20 13 22 68 22 l62 0 84 -196 c46
-107 87 -192 91 -187 4 4 43 92 86 196 l78 187 94 0 c71 0 93 -3 89 -12 -66
-164 -281 -684 -284 -687 -6 -9 -127 -4 -130 5 -23 65 -162 375 -168 375 -6 0
-145 -310 -168 -375 -3 -9 -125 -13 -130 -5 -2 2 -27 65 -57 139 -29 74 -64
158 -77 187 -12 28 -23 54 -23 57 0 3 -11 29 -24 58 -13 29 -35 82 -49 118
-14 36 -33 82 -42 103 l-15 37 93 0 94 0 63 -152z"/>
<path d="M1653 2087 c-16 -24 -33 -60 -33 -67 0 -5 -15 -41 -34 -82 -18 -40
-58 -130 -87 -200 -30 -70 -57 -122 -61 -115 -3 6 -48 113 -100 239 l-93 228
-36 0 -36 0 108 -262 c143 -346 134 -328 161 -328 18 0 28 11 45 53 90 213
179 414 186 418 5 2 52 -97 105 -221 54 -124 101 -231 105 -237 5 -7 18 -13
31 -13 19 0 30 19 78 138 31 75 86 208 122 295 l65 158 -36 -3 c-36 -3 -36 -4
-80 -108 -24 -58 -69 -165 -100 -239 l-56 -133 -101 237 c-79 184 -106 240
-123 246 -15 5 -25 4 -30 -4z"/>
<path d="M60 1072 c-6 -2 -10 -48 -10 -111 l0 -108 53 -50 53 -50 84 -1 c47 0
99 0 116 -1 l31 -1 -1 -212 -1 -213 52 -50 53 -50 98 -1 c53 0 102 3 107 7 6
5 10 104 10 263 l0 256 25 1 c14 1 89 1 168 1 l142 1 0 111 -1 111 -49 50 -49
49 -435 1 c-240 0 -441 -1 -446 -3z m858 -89 c1 -118 17 -108 -170 -108 l-163
0 -5 -264 -5 -265 -80 0 -80 0 -3 265 -2 265 -161 0 c-134 -1 -162 2 -168 14
-5 12 -7 99 -2 148 1 9 92 12 420 12 l419 0 0 -67z"/>
<path d="M158 992 c-24 -3 -28 -8 -28 -33 l0 -29 168 0 168 0 -1 -265 0 -266
30 3 30 3 2 245 c0 135 2 253 2 263 1 15 16 17 165 17 l164 0 4 30 c3 17 0 30
-6 31 -41 2 -677 3 -698 1z"/>
<path d="M1047 1067 c3 -5 106 -108 229 -229 l224 -221 0 -146 c0 -80 4 -150
8 -156 4 -5 27 -28 52 -50 l45 -41 105 1 105 0 5 150 5 150 223 224 224 223
-39 41 c-21 22 -42 46 -48 51 -6 7 -67 11 -165 11 l-155 0 -128 -129 -129
-129 -129 129 -129 129 -154 0 c-85 0 -152 -4 -149 -8z m425 -147 c73 -71 136
-130 139 -130 3 0 64 59 135 130 l129 131 118 -3 118 -3 -207 -207 -207 -207
0 -141 c0 -135 -1 -140 -21 -141 -12 -1 -50 -1 -86 -2 l-65 0 -1 141 0 141
-214 211 -214 210 121 0 121 0 134 -130z"/>
<path d="M1277 991 l-39 -6 171 -168 171 -168 0 -124 0 -125 30 0 30 0 1 98
c1 53 0 109 -1 124 -1 22 28 55 170 197 95 94 166 171 158 172 -7 0 -24 2 -38
4 -20 2 -52 -24 -171 -142 l-147 -145 -34 34 c-19 18 -86 83 -149 144 -112
108 -115 110 -152 105z"/>
</g>
</svg>
